:version 1.10
:name ASF
:units
  mass 1
  length 1
  angle deg
:documentation
  ASF file generated by Kaydara
:root
  axis xyz
  order  tx ty tz rx ry rz
  position 0 0 0
  orientation 0 0 0
:bonedata
  begin
    id 1
    name SpineDummy
    direction 0.999998 -0.00179978 1.38929e-006
    length 3.60008
    axis 0 0 0 xyz
  end
  begin
    id 2
    name Spine
    direction 0.964365 0.262802 0.0305839
    length 8.13928
    axis 1.33928 -1.75354 15.2838 xyz
    dof rx ry rz
  end
  begin
    id 3
    name Spine1
    direction 0.811168 0.572065 0.12144
    length 7.14954
    axis 2.2224 -6.9761 35.2157 xyz
    dof rx ry rz
  end
  begin
    id 4
    name Neck
    direction 0 0 0
    length 0
    axis 2.2224 -6.9761 35.2157 xyz
    dof rx ry rz
  end
  begin
    id 5
    name HeadDummy
    direction 0.810939 0.572387 0.121455
    length 3.55534
    axis 2.2224 -6.9761 35.2157 xyz
  end
  begin
    id 6
    name Head
    direction 0.998226 -0.000232542 0.0595419
    length 7.35666
    axis -3.03688 -3.41352 -0.0133467 xyz
    dof rx ry rz
  end
  begin
    id 7
    name R_ClavicleDummy
    direction 0.531669 -0.194489 -0.824319
    length 2.49392
    axis 2.2224 -6.9761 35.2157 xyz
  end
  begin
    id 8
    name R_Clavicle
    direction -0.155119 0.0480802 -0.986725
    length 4.485
    axis -54.2764 80.6538 162.779 xyz
    dof rx ry rz
  end
  begin
    id 9
    name R_UpperArm
    direction -0.955567 0.200068 -0.216484
    length 10.1122
    axis -72.9943 12.5026 168.175 xyz
    dof rx ry rz
  end
  begin
    id 10
    name R_Forearm
    direction -0.61433 0.385743 0.688332
    length 9.39148
    axis -117.015 -43.4982 147.875 xyz
    dof rx ry rz
  end
  begin
    id 11
    name R_Hand
    direction -0.699429 0.0170333 0.714499
    length 3.66324
    axis -45.0303 -36.7097 175.478 xyz
    dof rx ry rz
  end
  begin
    id 12
    name L_ClavicleDummy
    direction 0.40287 -0.36502 0.839319
    length 2.49392
    axis 2.2224 -6.9761 35.2157 xyz
  end
  begin
    id 13
    name L_Clavicle
    direction -0.231271 -0.0726419 0.970174
    length 4.485
    axis 18.4357 -75.9711 -162.563 xyz
    dof rx ry rz
  end
  begin
    id 14
    name L_UpperArm
    direction -0.917494 0.144359 0.370629
    length 10.1122
    axis 56.0417 -21.7544 171.058 xyz
    dof rx ry rz
  end
  begin
    id 15
    name L_Forearm
    direction -0.496786 0.615074 -0.612281
    length 9.39148
    axis 89.8094 37.7546 128.927 xyz
    dof rx ry rz
  end
  begin
    id 16
    name L_Hand
    direction -0.409932 0.64962 -0.640274
    length 3.66324
    axis -0.424369 32.133 128.52 xyz
    dof rx ry rz
  end
  begin
    id 17
    name L_ThighDummy
    direction -1.84081e-006 1.87549e-006 1
    length 3.13049
    axis 0 0 0 xyz
  end
  begin
    id 18
    name L_Thigh
    direction -0.947739 0.307978 0.083308
    length 17.9961
    axis 173.219 -4.77873 161.998 xyz
    dof rx ry rz
  end
  begin
    id 19
    name L_Calf
    direction -0.728814 -0.684427 0.0197583
    length 13.3367
    axis 167.331 -1.13214 -136.799 xyz
    dof rx ry rz
  end
  begin
    id 20
    name L_Foot
    direction -0.9028 0.418719 0.0981191
    length 5.8674
    axis 163.436 11.5135 -155.37 xyz
    dof rx ry rz
  end
  begin
    id 21
    name L_Toe0
    direction -0.35341 0.886259 0.299411
    length 4.75286
    axis 169.316 -17.4222 111.74 xyz
    dof rx ry rz
  end
  begin
    id 22
    name R_ThighDummy
    direction 9.32778e-007 -8.82053e-007 -1
    length 3.13049
    axis 0 0 0 xyz
  end
  begin
    id 23
    name R_Thigh
    direction -0.925064 0.37528 -0.0585023
    length 17.9961
    axis -178.698 3.35385 157.919 xyz
    dof rx ry rz
  end
  begin
    id 24
    name R_Calf
    direction -0.68969 -0.718776 -0.0876886
    length 13.3367
    axis -160.504 5.03065 -133.817 xyz
    dof rx ry rz
  end
  begin
    id 25
    name R_Foot
    direction -0.857405 0.418858 -0.299022
    length 5.8674
    axis -161.328 4.38911 -154.413 xyz
    dof rx ry rz
  end
  begin
    id 26
    name R_Toe0
    direction -0.100745 0.952789 -0.286433
    length 4.75286
    axis 171.683 16.6445 96.0359 xyz
    dof rx ry rz
  end
:hierarchy
  begin
    root SpineDummy L_ThighDummy R_ThighDummy
    SpineDummy Spine
    Spine Spine1
    Spine1 Neck
    Neck HeadDummy R_ClavicleDummy L_ClavicleDummy
    HeadDummy Head
    R_ClavicleDummy R_Clavicle
    R_Clavicle R_UpperArm
    R_UpperArm R_Forearm
    R_Forearm R_Hand
    L_ClavicleDummy L_Clavicle
    L_Clavicle L_UpperArm
    L_UpperArm L_Forearm
    L_Forearm L_Hand
    L_ThighDummy L_Thigh
    L_Thigh L_Calf
    L_Calf L_Foot
    L_Foot L_Toe0
    R_ThighDummy R_Thigh
    R_Thigh R_Calf
    R_Calf R_Foot
    R_Foot R_Toe0
  end

:SAMPLES-PER-SECOND 30
:FULLY-SPECIFIED
:DEGREES
92
root  -4.77028 29.2035 1.6717 -52.9213 11.1162 72.481
Spine  1.80477 3.32328 -1.30939
Spine1  1.40924 -12.7921 4.93957
Neck  3.97569e-016 0 -2.38542e-015
Head  -40.6234 -9.84123 1.0854
R_Clavicle  0.0761236 -8.34052 -0.612953
R_UpperArm  9.44802 -4.21164 11.1793
R_Forearm  -9.20682 20.7705 -18.3601
R_Hand  0.136086 1.97395 -2.90791
L_Clavicle  -0.338056 4.6082 2.08955
L_UpperArm  4.2519 -5.83002 5.67706
L_Forearm  -0.0823891 -4.79291 -5.563
L_Hand  0.356876 11.6326 2.61299
L_Thigh  -12.109 -6.28365 3.47418
L_Calf  15.5687 -0.937509 7.11626
L_Foot  2.23162 0.118568 10.2716
L_Toe0  1.68057 -0.00280199 -5.0931
R_Thigh  5.7753 -3.32322 9.8247
R_Calf  4.57584 -2.28613 -7.10704
R_Foot  -5.11091 -8.30578 13.8539
R_Toe0  -0.461343 -0.104447 -7.3039
93
root  -3.94892 30.2734 1.29699 -56.8198 11.2676 74.6581
Spine  1.11389 2.05549 -1.63585
Spine1  1.27866 -10.1647 0.570773
Neck  3.97569e-016 0 -2.38542e-015
Head  -36.2652 -8.48668 2.61388
R_Clavicle  0.186793 -11.6755 -0.304579
R_UpperArm  18.5906 -5.62114 20.0048
R_Forearm  -0.719061 27.7898 -25.9564
R_Hand  0.146755 3.34022 -5.14861
L_Clavicle  -0.333628 7.21938 1.69766
L_UpperArm  -7.77195 -0.343024 15.2648
L_Forearm  -2.18358 -4.50769 -5.23275
L_Hand  -0.0692411 10.6125 -0.251288
L_Thigh  -15.3058 -1.54286 2.62912
L_Calf  14.7649 -1.91634 14.2437
L_Foot  -1.56974 -7.40214 2.28592
L_Toe0  2.63058 -0.0645037 -4.2459
R_Thigh  6.93466 -2.71497 11.0907
R_Calf  -11.1883 -0.992981 -3.11283
R_Foot  -3.39498 -7.71622 5.70701
R_Toe0  -9.30839 1.41967 -7.10705
94
root  -3.25529 31.1689 0.737264 -60.7346 10.8772 77.2224
Spine  0.323736 0.747726 -2.8591
Spine1  0.65088 -5.378 -3.15408
Neck  3.97569e-016 0 -2.38542e-015
Head  -30.452 -8.09463 6.21583
R_Clavicle  0.283232 -15.7248 -0.173687
R_UpperArm  25.9561 -5.85951 31.8089
R_Forearm  9.88142 33.4678 -33.2979
R_Hand  0.0437305 3.67452 -6.74136
L_Clavicle  -0.365075 10.0522 1.57983
L_UpperArm  -18.3839 6.2393 24.7861
L_Forearm  -2.08728 -3.74901 -4.35162
L_Hand  -0.176093 9.00354 -1.16564
L_Thigh  -17.0739 3.75122 0.810498
L_Calf  6.02048 -2.46175 18.212
L_Foot  -2.50521 -9.11522 -1.56382
L_Toe0  0.328808 0.0425409 -6.29289
R_Thigh  5.8678 -2.932 11.6996
R_Calf  -22.0698 0.028769 0.133436
R_Foot  1.29328 4.68602 2.16034
R_Toe0  -11.0337 1.28726 -9.25082
95
root  -2.72821 31.4972 0.0450339 -64.5307 10.0375 79.0462
Spine  -0.634641 -0.431018 -4.19148
Spine1  -0.483966 -0.104372 -5.68043
Neck  3.97569e-016 0 -2.38542e-015
Head  -23.6114 -9.10997 8.62321
R_Clavicle  0.360037 -18.9344 0.116901
R_UpperArm  33.2758 -6.33748 44.9016
R_Forearm  19.5996 37.7831 -40.0697
R_Hand  -0.0434992 2.47055 -6.0057
L_Clavicle  -0.409734 11.7026 2.13117
L_UpperArm  -24.8258 12.1806 32.452
L_Forearm  -5.22424 -1.24364 -1.45001
L_Hand  -0.232441 8.99842 -1.61136
L_Thigh  -13.8716 8.02783 -1.44164
L_Calf  -4.23103 -1.95051 14.2277
L_Foot  -0.536215 -2.63567 0.608872
L_Toe0  0.505156 0.034446 -6.1361
R_Thigh  3.59379 -4.15845 11.3376
R_Calf  -16.1257 0.797878 2.50062
R_Foot  3.15582 11.0459 5.26787
R_Toe0  -9.12 0.755513 -10.8454
96
root  -2.33469 31.2954 -0.6317 -68.4418 9.26165 80.3493
Spine  -1.45252 -0.340961 -5.44821
Spine1  -1.6101 3.81903 -7.22593
Neck  3.97569e-016 0 -2.38542e-015
Head  -16.8084 -11.0042 9.13744
R_Clavicle  0.401746 -20.6565 0.727241
R_UpperArm  41.6782 -9.15193 56.8016
R_Forearm  28.5072 40.3298 -44.8231
R_Hand  -0.305717 0.535516 -6.05823
L_Clavicle  -0.43323 12.3893 2.64357
L_UpperArm  -26.8911 16.0727 38.4174
L_Forearm  -11.0584 3.26431 3.76337
L_Hand  -0.307351 10.9324 -1.88305
L_Thigh  -7.61771 11.1902 -4.57815
L_Calf  -8.20299 -0.676483 4.7456
L_Foot  1.60081 2.45295 4.40471
L_Toe0  0.505156 0.034446 -6.1361
R_Thigh  -0.0969945 -6.41573 12.7004
R_Calf  0.176599 0.989785 3.08214
R_Foot  2.19059 8.06465 5.60027
R_Toe0  -4.3846 0.0423803 -13.302
97
root  -2.0016 30.7687 -1.24538 -72.2729 8.80427 81.921
Spine  -1.99242 1.42182 -7.22189
Spine1  -2.25769 6.62948 -7.35218
Neck  3.97569e-016 0 -2.38542e-015
Head  -10.8124 -13.6915 8.88351
R_Clavicle  0.423276 -22.2516 1.75567
R_UpperArm  51.1424 -13.6473 67.3925
R_Forearm  39.0319 40.7329 -45.6473
R_Hand  -0.660929 -1.66975 -7.5888
L_Clavicle  -0.439417 13.5214 2.65605
L_UpperArm  -26.1177 17.2644 43.4478
L_Forearm  -14.5036 8.71607 10.1867
L_Hand  -0.253747 12.2628 -1.38483
L_Thigh  -2.38852 14.0171 -8.87059
L_Calf  -7.9374 0.782338 -5.99757
L_Foot  3.43305 5.75466 7.86149
L_Toe0  0.505156 0.034446 -6.1361
R_Thigh  -5.23081 -8.48002 15.4623
R_Calf  10.1054 0.916783 2.9239
R_Foot  0.156659 1.68414 3.05362
R_Toe0  4.12919 -0.523645 -14.4597
98
root  -1.60829 29.9298 -1.88616 -76.2358 8.16827 83.6337
Spine  -2.44283 2.94989 -8.98868
Spine1  -2.37874 9.93244 -5.92199
Neck  3.97569e-016 0 -2.38542e-015
Head  -4.92548 -15.9743 7.5422
R_Clavicle  0.405358 -24.4151 2.98156
R_UpperArm  59.6865 -16.497 76.6133
R_Forearm  51.6216 38.5241 -41.3877
R_Hand  -0.867481 -3.1545 -8.59133
L_Clavicle  -0.450926 15.5445 2.78999
L_UpperArm  -24.0484 16.6426 47.6786
L_Forearm  -12.821 14.3561 17.184
L_Hand  -0.206573 11.8222 -1.11315
L_Thigh  0.359977 17.339 -14.7052
L_Calf  -9.76528 2.19311 -16.5613
L_Foot  4.4657 7.61593 9.46767
L_Toe0  0.505156 0.034446 -6.1361
R_Thigh  -9.69412 -9.7837 17.1225
R_Calf  2.74995 0.621284 2.09927
R_Foot  1.09848 5.06679 6.20482
R_Toe0  1.15947 -0.306886 -15.6357
99
root  -1.08347 28.8638 -2.48907 -80.59 6.89801 85.4262
Spine  -3.0937 2.29457 -9.18162
Spine1  -2.41745 15.2009 -4.24193
Neck  3.97569e-016 0 -2.38542e-015
Head  2.42485 -15.4786 4.73831
R_Clavicle  0.359989 -25.7187 4.02006
R_UpperArm  65.3672 -14.3972 81.3232
R_Forearm  64.9845 32.82 -32.3938
R_Hand  -0.914551 -3.40001 -9.20408
L_Clavicle  -0.443821 17.4238 3.85647
L_UpperArm  -21.3379 16.5082 50.9284
L_Forearm  -8.69182 20.2291 25.2096
L_Hand  -0.426998 10.5158 -2.77818
L_Thigh  1.1602 20.945 -22.4584
L_Calf  -12.8678 3.43696 -26.3622
L_Foot  4.6161 8.07876 9.45713
L_Toe0  0.505156 0.034446 -6.1361
R_Thigh  -10.6504 -9.21884 17.8989
R_Calf  -11.5937 0.0367265 0.294871
R_Foot  2.47218 9.62788 12.2116
R_Toe0  -0.0993653 -0.279205 -16.3633
100
root  -0.497733 27.8991 -2.87415 -84.3752 5.70174 86.5824
Spine  -4.47024 -1.55824 -7.55392
Spine1  -3.17362 22.2418 -3.79078
Neck  3.97569e-016 0 -2.38542e-015
Head  11.1198 -12.6133 2.7932
R_Clavicle  0.360858 -24.4583 5.01142
R_UpperArm  68.6385 -8.6077 79.3309
R_Forearm  73.7151 25.7482 -23.624
R_Hand  -0.960547 -3.89631 -9.10743
L_Clavicle  -0.404747 18.3288 5.41435
L_UpperArm  -19.0364 18.3966 53.4721
L_Forearm  -5.74596 25.6961 33.4348
L_Hand  -0.760602 8.7023 -5.86215
L_Thigh  1.84624 22.8026 -30.0017
L_Calf  -15.1373 4.47186 -35.1984
L_Foot  5.68292 9.65256 11.2557
L_Toe0  0.505156 0.034446 -6.1361
R_Thigh  -8.58026 -6.82226 19.2853
R_Calf  -16.4548 -1.38463 -4.09631
R_Foot  1.38414 7.56135 18.0249
R_Toe0  -1.94362 -0.271786 -17.4069
101
root  -0.0606382 27.4183 -2.96266 -85.7213 5.10699 86.5568
Spine  -6.57218 -6.3801 -5.69388
Spine1  -4.87536 28.5293 -4.32863
Neck  3.97569e-016 0 -2.38542e-015
Head  18.4121 -11.3993 3.72538
R_Clavicle  0.47305 -20.8332 6.08727
R_UpperArm  69.1861 -4.41602 72.782
R_Forearm  69.2716 24.7796 -22.5564
R_Hand  -0.977059 -4.419 -7.33529
L_Clavicle  -0.380531 18.5377 6.27259
L_UpperArm  -19.161 20.6538 55.3998
L_Forearm  -4.06682 28.4894 37.4069
L_Hand  -0.907992 7.04775 -8.03366
L_Thigh  4.06547 22.3731 -33.2197
L_Calf  -18.6813 5.34173 -43.4286
L_Foot  7.66113 12.0059 14.899
L_Toe0  0.505156 0.034446 -6.1361
R_Thigh  -7.36042 -5.42419 20.5987
R_Calf  -15.497 -2.57886 -7.79146
R_Foot  0.83132 6.57874 19.4062
R_Toe0  -1.78856 -0.27284 -17.3238
